<?xml version="1.0" encoding="utf-8"?>
<!-- Generator: Adobe Illustrator 24.3.0, SVG Export Plug-In . SVG Version: 6.00 Build 0)  -->
<svg version="1.1" id="Layer_1" xmlns="http://www.w3.org/2000/svg" xmlns:xlink="http://www.w3.org/1999/xlink" x="0px" y="0px"
	 viewBox="0 0 316 355" style="enable-background:new 0 0 316 355;" xml:space="preserve">
<style type="text/css">
	.st0{fill:#00599C;}
	.st1{fill:#004482;}
	.st2{fill:#659AD2;}
	.st3{fill:#FFFFFF;}
</style>
<path class="st0" d="M308.1,263.3c2.4-4.2,3.9-8.8,3.9-13.1V104.1c0-4.2-1.5-8.9-3.9-13.1L159,177.2L308.1,263.3z"/>
<path class="st1" d="M172.2,346.2l126.5-73c3.6-2.1,7-5.7,9.4-9.9L159,177.2L9.9,263.3c2.4,4.2,5.7,7.8,9.4,9.9l126.5,73
	C153,350.4,165,350.4,172.2,346.2z"/>
<path class="st2" d="M308.1,91.1c-2.4-4.2-5.7-7.8-9.4-9.9l-126.5-73C164.9,4,153,4,145.7,8.2l-126.5,73C11.9,85.4,6,95.7,6,104.1
	v146.1c0,4.2,1.5,8.9,3.9,13.1L159,177.2L308.1,91.1z"/>
<g>
	<path class="st3" d="M159,279.2c-56.2,0-102-45.8-102-102s45.8-102,102-102c36.3,0,70.1,19.5,88.3,51l-44.1,25.5
		c-9.1-15.7-26-25.5-44.2-25.5c-28.1,0-51,22.9-51,51s22.9,51,51,51c18.2,0,35.1-9.8,44.2-25.5l44.1,25.5
		C229.1,259.6,195.3,279.2,159,279.2z"/>
</g>
<g>
	<polygon class="st3" points="261,171.5 249.7,171.5 249.7,160.2 238.3,160.2 238.3,171.5 227,171.5 227,182.8 238.3,182.8 
		238.3,194.2 249.7,194.2 249.7,182.8 261,182.8 	"/>
</g>
<g>
	<polygon class="st3" points="303.5,171.5 292.2,171.5 292.2,160.2 280.8,160.2 280.8,171.5 269.5,171.5 269.5,182.8 280.8,182.8 
		280.8,194.2 292.2,194.2 292.2,182.8 303.5,182.8 	"/>
</g>
</svg>
