<?xml version="1.0" encoding="utf-8"?>
<!-- Generator: Adobe Illustrator 24.3.0, SVG Export Plug-In . SVG Version: 6.00 Build 0)  -->
<svg version="1.1" id="Layer_1" xmlns="http://www.w3.org/2000/svg" xmlns:xlink="http://www.w3.org/1999/xlink" x="0px" y="0px"
	 viewBox="0 0 29.6 28.1" style="enable-background:new 0 0 29.6 28.1;" xml:space="preserve">
<style type="text/css">
	.st0{fill-rule:evenodd;clip-rule:evenodd;fill:#ED2124;}
	.st1{fill-rule:evenodd;clip-rule:evenodd;fill:#038BC8;}
</style>
<g>
	<path class="st0" d="M14.8,15.2l-0.6-0.9c-0.2-0.3-0.4-0.6-0.6-0.9c-0.3-0.6-0.7-1.3-0.9-1.9c-0.3-1.3,0.5-2.1,1.2-2.9
		c0.1-0.2,0.3-0.3,0.4-0.4c0.8-0.8,1.7-1.7,2.5-2.5s1.3-1.6,1.4-2.9c0.1-0.7-0.1-2-0.6-2.3c0.1,1,0.2,1.6-0.2,2.7
		c-0.5,1.2-1.3,1.8-2.1,2.5c-0.7,0.6-1.8,1.5-2.4,2.1c-0.5,0.4-1.2,1.1-1.4,1.7c-0.4,1,0,1.6,0.5,2.3c0.2,0.3,0.4,0.6,0.7,0.9
		c0.3,0.4,0.5,0.6,0.7,0.9c0.2,0.3,0.5,0.6,0.8,0.8C14.1,14.6,14.6,15.1,14.8,15.2L14.8,15.2z"/>
	<path class="st1" d="M23.3,23.7c0.3,0.5,0,0.7-0.4,0.9c-1.7,0.8-7.4,1-9.3,1s-3.7,0-5.5-0.4c-0.3-0.1-1.5-0.3-1.6-0.6
		c0-0.2,0.2-0.4,0.3-0.5c0.4-0.3,1.2-0.4,1.6-0.5c0.2,0,0.5-0.1,0.6-0.1c-0.9-0.1-3.6,0.3-4.2,1.2c-0.4,0.6,0.3,0.8,0.7,1
		c1.5,0.5,4.8,0.6,6.6,0.7c2.6,0,8.8,0,11-1.5c0.1-0.1,0.4-0.3,0.4-0.5C23.7,24,23.4,23.8,23.3,23.7L23.3,23.7z"/>
	<path class="st0" d="M15.9,16.2c0.3-0.1,1.1-0.8,1.3-1c0.3-0.3,0.8-0.9,0.8-1.4s-0.4-1.4-0.6-1.7c-0.8-1.2-1.4-1.8-0.4-3.1
		c0.5-0.5,0.9-0.8,1.3-1.2c0.5-0.5,1.4-1.1,2-1.4l0.7-0.5c-0.4,0.1-1.4,0.5-1.7,0.6C18.7,6.7,18,7,17.6,7.2c-1.6,1-3.1,2.4-2.5,4.3
		c0.4,1.4,1.6,2.1,1.5,3.1C16.6,15.4,16.1,15.9,15.9,16.2L15.9,16.2z"/>
	<path class="st1" d="M19.2,22.7c-0.5-0.2-0.9-0.4-1.3-0.7c-0.3-0.2-0.2-0.1-0.5-0.1c-1.3,0.3-3.4,0.3-4.8,0.3c-0.4,0-1.4,0-1.5-0.4
		c-0.1-0.2,0-0.4,0.1-0.5c-0.9,0.2-1.8,1-0.6,1.5c1.4,0.7,4.3,0.7,5.9,0.4C16.9,23.4,19,22.9,19.2,22.7L19.2,22.7z"/>
	<path class="st1" d="M19.5,19.8c-0.4-0.1-0.7-0.3-1-0.5c-0.2-0.2-0.1-0.1-0.6-0.1c-1.5,0.3-6.1,0.7-7.4,0.2
		c-0.2-0.1-0.4-0.2-0.4-0.4c0-0.2,0.2-0.4,0.3-0.5c-1.1,0.1-2,1.2-0.7,1.6c1.5,0.6,5,0.6,6.7,0.4C17.1,20.4,19.2,20,19.5,19.8
		L19.5,19.8z"/>
	<path class="st1" d="M20.6,16.3c-0.2,0-0.5,0.1-0.7,0.1s-0.5,0.1-0.7,0.1c-1.4,0.2-3,0.4-4.3,0.5c-1.1,0.1-5.2,0.2-5.9-0.4
		c0-0.3,0.3-0.4,0.4-0.5c0.7-0.4,1.4-0.5,2.1-0.8c-1-0.1-3.4,0.6-4.3,1.2c-1,0.6,0.7,0.9,1.3,0.9c3.5,0.5,6.8,0.2,10.1-0.3
		c0.6-0.1,0.7,0,1.1-0.3C20,16.7,20.4,16.5,20.6,16.3L20.6,16.3z"/>
	<path class="st1" d="M8.6,26.8c1,0.4,3.1,0.7,4.2,0.8c1.5,0.1,3.2,0.1,4.7,0c2-0.1,4.3-0.4,6.1-1.3c0.4-0.2,1.2-0.7,1.3-1.3
		c-0.1,0.1-0.2,0.2-0.4,0.3c-3.1,2.1-10.1,1.9-13.8,1.6L8.6,26.8L8.6,26.8z"/>
	<path class="st1" d="M21.3,15.6c0.8-0.2,1.6-0.1,2.1,0.4s0.5,1.4,0.2,2c-0.5,0.9-1.5,1.7-2.4,2.2c-0.2,0.1-0.3,0.2-0.4,0.3
		c0.6-0.1,1.9-0.7,2.4-1c0.7-0.4,1.4-1,1.6-1.7c0.4-1.1-0.2-1.9-0.9-2.3c-0.4-0.2-0.9-0.4-1.4-0.3C22.1,15.1,21.5,15.3,21.3,15.6
		L21.3,15.6z"/>
</g>
</svg>
