<?xml version="1.0" encoding="utf-8"?>
<!-- Generator: Adobe Illustrator 24.3.0, SVG Export Plug-In . SVG Version: 6.00 Build 0)  -->
<svg version="1.1" id="Layer_1" xmlns="http://www.w3.org/2000/svg" xmlns:xlink="http://www.w3.org/1999/xlink" x="0px" y="0px"
	 viewBox="0 0 318.7 354.7" style="enable-background:new 0 0 318.7 354.7;" xml:space="preserve">
<style type="text/css">
	.st0{fill:#A179DC;}
	.st1{fill:#280068;}
	.st2{fill:#390091;}
	.st3{fill:#FFFFFF;}
</style>
<g>
	<path class="st0" d="M310.8,107.3c0-5.7-1.2-10.7-3.7-15.1c-2.4-4.3-6-7.8-10.9-10.6c-40.1-23.1-80.3-46.2-120.4-69.4
		c-10.8-6.2-21.3-6-32,0.3c-16,9.4-96,55.2-119.8,69C14.1,87.3,9.3,96,9.3,107.3c0,46.5,0,93.1,0,139.6c0,5.6,1.2,10.5,3.5,14.8
		c2.4,4.4,6.1,8,11.1,10.9c23.8,13.8,103.8,59.6,119.8,69c10.7,6.3,21.2,6.6,32,0.3c40.1-23.2,80.3-46.2,120.4-69.4
		c5-2.9,8.6-6.5,11.1-10.9c2.4-4.3,3.5-9.2,3.5-14.8C310.8,246.9,310.8,153.8,310.8,107.3"/>
	<path class="st1" d="M160.5,176.6l-147.7,85c2.4,4.4,6.1,8,11.1,10.9c23.8,13.8,103.8,59.6,119.8,69c10.7,6.3,21.2,6.6,32,0.3
		c40.1-23.2,80.3-46.2,120.4-69.4c5-2.9,8.6-6.5,11.1-10.9L160.5,176.6z"/>
	<path class="st2" d="M310.8,107.3c0-5.7-1.2-10.7-3.7-15.1l-146.6,84.4l146.8,85c2.4-4.3,3.5-9.2,3.5-14.8
		C310.8,246.9,310.8,153.8,310.8,107.3"/>
	<g>
		<path class="st3" d="M247.5,144.8v15.9h15.9v-15.9h7.9v15.9h15.9v7.9h-15.9v15.9h15.9v7.9h-15.9v15.9h-7.9v-15.9h-15.9v15.9h-7.9
			v-15.9h-15.9v-7.9h15.9v-15.9h-15.9v-7.9h15.9v-15.9H247.5z M263.4,168.7h-15.9v15.9h15.9V168.7z"/>
		<path class="st3" d="M160.8,65c41.5,0,77.6,22.5,97,56l-0.2-0.3l-48.8,28.1c-9.6-16.3-27.2-27.3-47.4-27.5l-0.6,0
			c-30.8,0-55.8,25-55.8,55.8c0,9.7,2.5,19.3,7.4,27.7c9.6,16.8,27.7,28.1,48.4,28.1c20.9,0,39.1-11.5,48.6-28.4l-0.2,0.4l48.7,28.2
			c-19.2,33.2-54.9,55.6-95.8,56.1l-1.2,0c-41.6,0-77.9-22.7-97.2-56.3c-9.4-16.4-14.8-35.5-14.8-55.8C48.8,115.2,99,65,160.8,65
			L160.8,65z"/>
	</g>
</g>
</svg>
